<?xml version="1.0" encoding="UTF-8"?>
<svg id="Camada_1" xmlns="http://www.w3.org/2000/svg" version="1.1" viewBox="0 0 224.5 58.8">
  <!-- Generator: Adobe Illustrator 29.8.1, SVG Export Plug-In . SVG Version: 2.1.1 Build 2)  -->
  <defs>
    <style>
      .st0 {
        fill: #e84910;
      }

      .st1 {
        fill: #164194;
      }
    </style>
  </defs>
  <g>
    <path class="st1" d="M45.9,2.7l-1.7,9.9c-.2.9-.8,1.5-1.7,1.5h-.2c-3.2-.2-12.1-1-17.8-1s-4.5.7-4.5,3.3.8,1.8,3.5,3.4l9.6,5.7c5.7,3.3,7.9,7.7,7.9,13.2,0,14.8-12.4,20.8-25.9,20.8s-11.5-.9-15.6-2.1c-.7-.2-1.3-.6-1.3-1.3v-.2l1.7-9.7c.2-.9.9-1.6,1.8-1.6h.2c3.2.3,11.6,1.2,15.8,1.2s5.8-1.1,5.8-4.7-.8-2.1-3.1-3.6l-10.2-6.7c-4.6-3-6.8-8.1-6.8-13C3.5,3.5,14.6-.8,27.2-.8s14.5,1,17.6,2c.6.2,1.2.6,1.2,1.3v.2Z"/>
    <path class="st1" d="M90.9,1.7l-1.7,9.6c-.2.9-1,1.6-1.9,1.6h-16c-2.8,0-4,.9-4.5,4l-1,5.8h19.5c.8,0,1.3.6,1.3,1.3v.2l-1.7,9.3c-.2.9-.9,1.6-1.8,1.6h-19.5l-1.2,6.6c0,.6-.2,1.1-.2,1.6,0,1.8.9,2.4,3.2,2.4h16c.8,0,1.3.6,1.3,1.3v.2l-1.7,9.6c-.2.9-.8,1.4-1.8,1.6-3.1.4-7.9.9-15.6.9s-17.7-3.3-17.7-13.7.2-2.6.4-4l4.3-24.8C53.5.9,63-.8,74.2-.8s12.5.6,15.4.9c.9,0,1.3.5,1.3,1.3v.3Z"/>
    <path class="st1" d="M146.9,1.6l-9.5,54.3c-.3,1.6-1.9,2.9-3.5,2.9h-9.8c-1.4,0-2.3-.6-2.9-2.1l-11.7-26.5c-.2-.6-.5-.6-.7-.6s-.4.2-.5.7l-4.7,27c-.2.9-1,1.6-1.9,1.6h-11.9c-.8,0-1.3-.6-1.3-1.3v-.2L98,2.9c.3-1.6,1.9-2.9,3.5-2.9h9.6c1.5,0,2.1.9,2.8,2.3l12,27.3c.2.6.3.7.6.7s.5,0,.6-.7l4.9-28c.2-.9,1-1.6,1.9-1.6h11.9c.8,0,1.3.6,1.3,1.3v.3Z"/>
    <path class="st1" d="M191.9,58.8h-13.4c-.8,0-1.3-.7-1.3-1.5l-.2-11h-14.1l-4.2,11c-.3.8-1,1.5-1.8,1.5h-14c-.7,0-1.1-.4-1.1-1s0-.4.2-.6l19.1-48.4c3.1-7.8,9.3-9.4,16.8-9.4s13.2,1.6,13.5,9.4l2.1,48.4h0c0,.9-.6,1.7-1.5,1.7ZM176.5,13.5c0-.7,0-1.1-.7-1.1s-.8.4-1,1.1l-7.4,20.1h9.5l-.3-20.1Z"/>
  </g>
  <path class="st0" d="M224.5,1.5c.2-1-.5-1.5-1.3-1.5h-13c-.9,0-1.7.6-1.8,1.5l-2.5,14,17.6-8.2,1-5.8Z"/>
  <path class="st1" d="M204.8,21.8l-6.2,35.3c-.2.8.3,1.6,1.3,1.6h13c1.2,0,1.7-.7,1.9-1.6l7.7-43.6-17.6,8.2Z"/>
</svg>